<?xml version="1.0" encoding="iso-8859-1"?>
<!-- Generator: Adobe Illustrator 19.0.0, SVG Export Plug-In . SVG Version: 6.00 Build 0)  -->
<svg version="1.1" id="Capa_1" xmlns="http://www.w3.org/2000/svg" xmlns:xlink="http://www.w3.org/1999/xlink" x="0px" y="0px"
	 viewBox="0 0 485.001 485.001" style="enable-background:new 0 0 485.001 485.001;" xml:space="preserve">
<g>
	<path d="M470.766,84.054c-9.18-9.18-21.384-14.235-34.366-14.235h-21.218V48.6c0-12.982-5.056-25.187-14.235-34.366
		C391.767,5.055,379.563,0,366.582,0c-12.981,0-25.187,5.055-34.366,14.234c-9.18,9.18-14.236,21.385-14.235,34.366v39.609
		l-60.842,60.841L119.34,180.814c-28.086,6.472-53.749,20.709-74.212,41.174C16.027,251.089,0.001,289.779,0.001,330.932
		s16.026,79.843,45.125,108.943c29.1,29.1,67.79,45.126,108.943,45.126s79.843-16.026,108.942-45.125
		c20.464-20.464,34.702-46.126,41.174-74.212l31.764-137.801l60.841-60.842h39.608c12.983,0,25.188-5.056,34.367-14.234
		c9.18-9.179,14.235-21.384,14.235-34.366S479.946,93.234,470.766,84.054z M274.953,358.925
		c-5.208,22.598-16.672,43.254-33.154,59.736C218.365,442.094,187.209,455,154.069,455s-64.296-12.906-87.729-36.339
		c-23.433-23.433-36.339-54.589-36.339-87.729s12.906-64.296,36.339-87.729c16.481-16.482,37.138-27.946,59.736-33.154
		l133.896-30.864l45.844,45.844L274.953,358.925z M449.553,131.573c-3.513,3.513-8.183,5.448-13.151,5.448
		c-0.001,0-52.037,0-52.037,0L322.3,199.086l-36.385-36.385l62.065-62.065V48.6c0-4.968,1.935-9.639,5.448-13.152
		S361.612,30,366.582,30c4.968,0,9.639,1.935,13.152,5.448s5.448,8.184,5.448,13.152v51.219H436.4c4.969,0,9.64,1.935,13.153,5.448
		c3.514,3.513,5.448,8.184,5.448,13.153S453.066,128.06,449.553,131.573z"/>
	<path d="M116.113,387.065L94.9,365.852l28.284-28.284l21.213,21.213L116.113,387.065z M116.114,307.064l-21.213-21.213
		l28.284-28.284l21.213,21.213L116.114,307.064z"/>
</g>
<g>
</g>
<g>
</g>
<g>
</g>
<g>
</g>
<g>
</g>
<g>
</g>
<g>
</g>
<g>
</g>
<g>
</g>
<g>
</g>
<g>
</g>
<g>
</g>
<g>
</g>
<g>
</g>
<g>
</g>
</svg>
