<?xml version="1.0" encoding="iso-8859-1"?>
<!-- Generator: Adobe Illustrator 19.0.0, SVG Export Plug-In . SVG Version: 6.00 Build 0)  -->
<svg version="1.1" id="Layer_1" xmlns="http://www.w3.org/2000/svg" xmlns:xlink="http://www.w3.org/1999/xlink" x="0px" y="0px"
	 viewBox="0 0 298.642 298.642" style="enable-background:new 0 0 298.642 298.642;" xml:space="preserve">
<g>
	<g>
		<g>
			<path d="M286.816,111.93c-21.84-27.31-62.554-59.559-135.552-67.975c-44.596-5.142-93.889-2.506-126.274,29.223
				C8.876,88.968,0,109.941,0,132.235v34.052c0,41.299,31.361,85.523,91.299,90.141c31.818,2.461,49.99-9.235,70.181-28.494
				c13.498-12.875,20.932-19.969,38.866-9.489c62.477,36.452,98.296-5.094,98.296-39.376v-34.052
				C298.641,133.049,294.552,121.608,286.816,111.93z M197.692,68.483l68.983,109.704c-6.519,4.442-14.645,7.059-23.957,6.336
				l-78.14-124.265C176.649,62.347,187.656,65.149,197.692,68.483z M146.157,57.734l76.505,121.664
				c-15.974-6.18-22.758-14.096-36.99-14.387L117.217,56.146C125.766,56.18,136.202,56.708,146.157,57.734z M34.965,83.357
				c15.424-15.112,37.944-24.147,65.828-26.56l70.19,111.62c-22.32,11.069-33.295,43.247-78.587,39.751
				c-48.895-3.771-78.146-38.541-78.146-75.934C14.25,113.803,21.607,96.444,34.965,83.357z M237.497,217.843
				c-10.15-2.087-20.233-6.026-29.966-11.705c-27.189-15.89-41.78-1.974-55.888,11.483c-13.261,12.65-28.292,26.99-59.249,24.598
				c-34.152-2.631-68.675-23.865-76.501-60.165c17.471,24.757,45.83,38.04,75.405,40.321c31.817,2.461,49.99-9.236,70.181-28.494
				c13.498-12.875,20.932-19.969,38.866-9.489c28.91,16.869,61.514,22.034,83.948-2.593
				C282.743,203.533,262.89,223.069,237.497,217.843z M277.049,167.914l-56.831-90.379c26.131,12.515,43.776,28.673,55.468,43.294
				C287.326,135.391,286.797,154.043,277.049,167.914z"/>
			<path d="M77.048,168.395c15.227,0,27.614-12.384,27.614-27.606c0-15.227-12.388-27.614-27.614-27.614
				c-15.227,0-27.615,12.388-27.615,27.614C49.433,156.011,61.821,168.395,77.048,168.395z M77.048,127.425
				c7.369,0,13.364,5.995,13.364,13.364c0,7.364-5.995,13.356-13.364,13.356c-7.368,0-13.365-5.992-13.365-13.356
				C63.683,133.419,69.679,127.425,77.048,127.425z"/>
		</g>
	</g>
</g>
<g>
</g>
<g>
</g>
<g>
</g>
<g>
</g>
<g>
</g>
<g>
</g>
<g>
</g>
<g>
</g>
<g>
</g>
<g>
</g>
<g>
</g>
<g>
</g>
<g>
</g>
<g>
</g>
<g>
</g>
</svg>
